<svg xmlns="http://www.w3.org/2000/svg" version="1" width="2000" height="1701"><path d="M785.192 185.95l24.074-15.314 5.074-12.814 21.574-21.814 25.574-4.313 27.574 18.686 13.075-9.813 7.574 8.186 38.075 2.687 7.074-16.814 3.073-29.314L985.007 86l.575-13.815 21.074-14.314 7.074-17.313 18.074-.313 15.574-13.814 38.162 35.914 9.662-11.585 50.66-.587 1.663 7.914 9.162 10.414 2.162 14.416 10.66 14.414 15.162 1.414-.838-9.086 36.66-21.086 23.163 3.415L1298.32 98.9l2.66 10.415-7.338 4.414-9.338 39.914 29.662 31.414 41.413-35.905 16.913 3.095 2.413-13.405 17.914-10.905 16.414-.405 23.913 8.095 15.414-12.905 13.414 9.595 35.914 10.095 1.914 13.095 22.913 10.594-.086 11.095 9.412 10.595 13.414-.405 7.913 21.595 7.413 1.595 8.808-11.307 8.308-.808 8.808 10.192-1.693 28.693 1.808 8.192-4.19 13.192 8.306 9.692-.192 9.192-23.693 20.193-.19 15.69 17.806 11.194.808 16.192 22.308 20.192-4.193 8.193 7.807 30.693-14.693.192 1.216 8.83-6.38 16.083-13.38 6.584-2.88 16.084-8.88 30.084 48.62 31.584.12 15.584 14.12 5.084 18.12-.917-.886 12.726-14.67 34.71 4.832 7.21 14.83 2.21 12.33 13.71 1.378 15.45 13.262 10.52 3.762 37.52 47.76 33.522 14.763-.48 11.763 9.022 13.76.52 4.763 14.52 12.262.022 3.26 18.52-3.737 41.522-10.238 22.52 11.762 1.522 12.262 8.52 46.26-15.48 18.263 13.022 26.26 6.52 7.63 9.813 18.63-.688 9.628 13.812-14.87 10.812 1.13 28.312 27.628 14.312 5.63 6.812 11.63.312 5.628 7.813 12.63 1.312 3.128 40.812-25.37 6.312-.87 8.81-28.872-.186 5.63 17.312-13.872 26.812-11.932-.005-8.432 16.995-11.432 1.495-5.932 9.495-6.932-.005-6.932 9.995-24.932-8.005-15.933 6.496-14.43-9.006-14.433-.005-4.432-24.006-18.932-.505-12.932-6.506-10.43 7.995-34.934.494-5.495 26.84 3.005 9.838-13.496 5.34.003 9.838-6.996 10.338 18.504 14.84 2.505 19.838 28.005 18.84-683.267 158.39-728.522-158.39 47.704-381.132 16.918-2.828 4.853-19.32-6.615-20 11.97-13.053 20.456-1.03 14.8 7.454 30.354-19.415 5.607-21.537 9.85 1.09 25.405-.323 14.8-13.05 18.333 19.474-6.414 6.04-3.585 15.233 8.388 12.5 22.53 3.31 7.682-6.592 12.63-1.64-.096-19.32 6.973-14.37-12.825-11.54-4.34-11.54-29.088 4.723-.097-20.025 13.338-18.612 2.025-27.097 9.095-9.42 14.752-6.59 4.105-22.015-7.21-17.77 1.276-38.28 10.468-8.58 4.812-20.6 20.368-24.844 31.68-1.51 20.37-11.407 14.003-23.43 3.397-19.187 11.175-7.873 21.782 6.27 11.175-8.58 23.903 10.512 8.347-7.166 3.44-23.435 28.9-19.192-7.167-13.536-24.843-5.757-14.236 1.313-21.307-11.414 9.097-13.536 1.32-13.536 9.098-10-.8-11.415 3.44-12.12 11.927-18.487-1.508-31.213 9.098-5.758 16.17 6.97z" fill="green"/><path d="M318.962 1130.135h1421.464l9.095 3-.87 10 9.13 11.75-.936 21.375-13.984 9.844 10.516 17.844 9.516 18.343 7.877 8.17-8.624 2.667-1.123 16.168 7.877 8.168-.623 25.168 6.877 10.17-4.623 10.667-3.122 8.168 8.815 13.063 16.815 4.562.814 21.063 12.315 12.062-.686 18.063-73.684 1.062-21.185 8.063-7.685 16.062-11.745-1.312-15.246-9.813-37.246 3.188-3.246 12.187 6.754 9.688-1.245 7.187-12.745.188-3.187 8.547-18.686 12.047-1.187 14.546-8.593.524-17.886 27.565.613 13.566-7.888 5.065 1.613 16.065-9.386 6.066-3.388 20.564-6.846 11.267 1.153 17.267 8.652 5.766 1.654 15.767 7.403 8.14-5.098 9.142 13.404 25.642-9.597 17.64-5.595 13.936-16.594.435-6.092-11.066-12.094-.566-14.594-16.565.906-18.566-17.593-9.066-12.594-16.565-45.095-.065-11.094 10.935-8.592-4.066-8.094 8.435-22.594-.065-10.094-17.065-18.593 6.934-7.774 10.484-10.774.484-8.274 15.483-14.892 2-14.892 9.998-7.892-8.5-3.392-12.502-12.392-10 3.108-24.502-11.892-13.5-5.892-13-14.392-7.002-12.892 6-9.893 15.998-20.393.5-12.392 5.998-13.892 23-3.892 22.498-8.805-10.656-7.306-.656-13.306-37.157-26.306-5.156-26.806 13.843-4.305-16.156-17.306-12.156-3.805-10.156-12.806 7.843-13.306 19.344-30.306 1.343-20.306-15.157-13.306 9.844-1.306 20.344-12.805 19.343-10.144-11.29 6.857-29.792-48.645-12.29-10.144 8.708-33.144-1.79L873.9 1550l-19.144.21-.144-32.79-35.644-5.292-18.144 9.21-67.144-27.292-36.145 1.21-1.644-16.792-54.643.71-16.144-19.792-34.33-.974-30.795-9.46-12.41 2.563-81.707-3.802-17.36-12.287-22.31 1.855-41.4 15.29-34.33-.974-31.498-321.455z" fill="green"/><path d="M187.072 1094.913l9.828-15.203-2.194-61.872-29.77-90.156-12.8-30.76-11.314-52.347 1.415-35.012-7.314-35.87-6.486-12.984 3.414-15.108 27.092 13.822 14.363-3.15 29.212-2.442 15.07-3.856 28.506 3.922 10.828-5.978 10.12-.32 9.414 6.75L283.04 771l10.12-2.442 10.12 4.63 49.012-28.606 13.656-1.735 5.17 4.63 12.242.385v705.17l-33.94-.045-8.486 1.757-17.793-3.624-53.853 2.033-19.914 21.832-5.064 26.074-65.17 50.822-10.72-3.624-5.065-14.23-36.884-9.28-18.5 5.568-7.892 10.518-15.9-1.68 6.25-49.585 15.5-12.42 3.123-20.197 12.855-66.296-15.078-25.285-10.834-1.243-12.956-23.87-13.664 1.584-19.32-13.97-19.32-4.78-3.763-17.506-5.178-4.07 25.935-38.72 13.207-12.557 15.328-25.284 28.056-16.092 52.805-13.264 34.42-28.113.48-42.255-4.95-30.32z" fill="green"/><path d="M1047.745 25.634L1086.6 63.95l9.714-14.302 31.243-2.92 19.427 3.17 2.04 9.91 8.634 9.388 2.033 15.82 9.666 12.384 15.48 2.28 1.004-9.78 35.944-20.824 22.338 3.173 18.676 11.937 36.697 15.11 1.646 12.952-7.74 2.026-1.46 15.242-7.016 21.586 1.08 5.397 28.062 29.142 18.348-21.047 25.364-14.57 16.19 3.777-.54-14.57 19.428-11.873 15.65-1.08 24.824 9.174 15.11-14.03 13.833 10.456 37.015 9.92.763 13.74 22.897 11.447-.38 10.684 8.775 10.686 14.5-1.145 5.725 22.134 8.776.38 10.685-9.92 8.014.38 8.013 8.778-.763 27.857-2.67 4.578 4.196 4.197-5.724 10.685.764 3.816 9.54 10.685-2.29 8.014-11.066 6.487-11.067 14.883-.38 14.5 11.447 8.396 5.342 1.144 3.053 16.79 19.08 20.225-3.053 10.302 8.395 29-16.028-.762 1.526 12.21-5.342 13.738-12.974 5.343-3.053 4.58v16.027l-7.633 12.21-1.526 18.317 29.002 12.21 18.316 15.265-.763 14.5 13.16 4.803 21.947 1.302-.763 11.448-7.633 9.922-8.395 24.422 7.185 9.29 12.465 1.8 12.95 12.952v14.03l15.112 12.952 3.238 36.697 20.507 11.87 25.902 21.048 14.83-.057 12.21 9.922h14.5l5.027 14.632 11.763-.894 3.723 20.42-1.434 16.976-3.816 25.186-9.158 20.606 4.764 3.276 7.856-.987 11.04 7.316 40.04-15.803 8.934 1.488 15.133 11.578 27.564 6.685 6.475 10.255 20.506-.54 8.636 14.03-15.994 11.863 1.657 25.632 16.79 10.685 12.21 4.58 5.343 8.394 12.21-3.053 6.106 12.21 12.21-3.052-1.526 36.633 4.58 9.158-26.712 2.29-.633 9.066-27.607.092v9.922l6.106 6.105-15.265 29.002-12.21-.763-8.396 18.316h-12.975l-5.342 10.684-6.87-.763-6.868 9.922-11.448-3.054-15.264-5.342-15.264 7.63-11.448-7.63-3.053-2.29-13.738-.763-3.816-22.895-18.317-.763-14.502-6.87-9.92 9.16-33.582-2.29-6.105 27.475 3.054 11.448-12.975 4.58v11.447l-9.16 8.395 21.37 16.79 2.29 16.027v4.58l14.5 12.973 22.133 4.58-.763 9.158.763 4.58 9.922 11.447-1.527 21.37-14.5 9.157 2.29 6.105 8.394 11.448 6.87 16.79 12.21 9.92-10.685 2.29-.763 9.16-1.526 6.868 9.158 7.633-.763 24.422 6.105 11.448-2.29 9.92-6.105 7.633 11.067 16.41 15.645 2.67.763 21.37 13.356 10.303-.38 19.46-74.794.763-20.606 7.632-8.395 16.41-9.923-.383-15.264-10.685-38.922 3.816-3.815 10.685 6.868 10.685v7.63l-13.737-1.525-2.29 10.685-17.553 10.685-3.053 15.263-8.395.764-17.553 28.238 1.526 11.448-7.632 6.106 2.29 13.356-2.672 6.487-8.013 2.29-3.433 20.223-8.395 12.974 1.908 8.014-.382 8.014 10.303 5.724.764 16.79 6.87 6.87-6.107 9.157 8.396 11.448 6.105 14.5-2.67 11.83-8.778 8.014-3.053 12.974h-18.316l-4.578-11.828h-12.975l-13.737-16.41.382-20.224-17.935-8.776-12.21-16.79-12.212-1.908-35.107 4.197-8.777 9.54-8.394-4.96-9.158 9.922-24.04-.763-6.87-16.792-19.842 5.343-6.106 11.83-12.974-.38-8.395 20.605-14.5-2.29-13.737 8.395-8.396-6.87-3.815-12.21-12.212-10.684 3.435-22.896-11.066-14.5-4.58-12.975-16.028-8.395-13.737 6.87-8.395 16.79-22.133-.764-12.21 7.632-13.738 22.896.762 18.316-6.105 6.87-6.87-13.74-7.63 1.528-7.633-18.317-2.29-22.895-16.027.764-9.158-4.58-12.212 3.052-19.46 13.356-2.672-17.935-17.554-12.974-3.053-12.212-14.5 9.158-11.45 19.843-33.58 1.525-19.842-17.553-12.21 12.974-.765 20.606-12.21 18.317-14.5-12.212 9.92-26.712-7.632-6.105-41.974-9.92-9.922 9.92-32.817-.762 3.053-21.37-17.554.763-3.816-3.815 1.527-29.764-35.107-4.578-19.08 9.158-66.397-27.475-37.397.764-1.526-15.265-54.95-.764-16.79-19.078h-32.054l-31.29-10.685-12.975 3.434-81.28-4.96-18.697-12.21-8.777 2.29-10.684-.764-41.594 15.264-34.344.38-12.21 2.673-16.028-5.343-54.186 3.053-19.843 22.896-5.343 25.947-67.924 48.08-7.632-1.525-4.96-13.738-14.883-4.58-23.66-3.815-17.552 3.052-8.395 9.158 6.87 25.95-3.054 3.052-16.79-10.685-1.527-32.054 6.106-15.264-1.526-20.607 17.553-11.448-.763-10.685-4.58-6.105 6.106-21.37.763-9.92 11.448-20.607-2.29-22.133-11.447-22.132-12.21.763-12.212-23.66-12.21 1.527-10.686-9.158-10.686-6.105-18.316-3.053-3.053-7.632L29 1306.43l-7.63-3.052 26.71-40.45 12.975-12.21 16.027-25.186 25.95-16.79 31.29-12.21 20.606-.764 37.396-29.002-.653-60.152-3.87-12.19 7.556-12.95v-15.11l-2.29-7.938-8.056-14.03 10.28-25.272-6.41-12.123-4.317-5.396-.894-10.86-7.742-9.647-4.317-29.14-5.396-18.35-11.872-32.38-4.317-22.665-8.635-37.776 1.145-29.708-6.03-9.91-.51-26.22-7.557-12.952 1.08-16.19 18.348 6.476 10.543 8.57 6.725-1.014 9.714-4.318 7.238.316 7.305-1.71 14.597.315 13.52-5.33 27.494 5.33 15.11-7.554 12.953 2.158 8.438 12.69 2.987 9.53 9.267-2.726 10.607 5.33 34.538-22.665 9.2-4.317 6.673-3.87 13.9-.513 4.002 7.108 19.994-1.71 3.435-15.045 1.078-8.635-6.28-17.585 6.28-6.16 3.5-7.49 20.942-2.41 17.27 10.467 30.155-21.706 5.843-22.033 9.714 2.158 24.825 1.08 12.95-16.19 10.32 4.973 3.816 11.066 7.632 6.487-8.395 7.63 1.526 6.107-5.342 6.87 8.395 13.736 22.895 1.526 8.395-7.63 14.5 1.525-.763-22.132 6.106-9.92-9.158-12.212-6.87-1.526-2.29-14.5-19.842 7.63-10.684-2.29 1.143-17.934 16.41-18.698-.764-27.475 9.92-9.92 14.5-5.344 3.817-25.186-7.632-13.737 3.053-16.027-2.29-9.922 1.527-16.027 11.447-6.868 2.29-21.37 11.448-9.157 6.105-5.343 3.053-8.395 35.87-2.29 17.553-10.684 14.884-24.422 2.67-19.08 10.686-9.92 21.75 8.013 11.83-8.013 15.264 6.87 6.105 5.34 7.63-6.105 2.29-21.37 8.396-10.684 18.316-7.63 6.106-6.87-7.632-12.974-12.974-.763-13.738-5.342-15.263 3.817-16.79-6.87-.763-6.104 8.395-12.21.763-14.502 10.304-10.684-2.673-10.684 3.053-12.975 12.974-16.79-.763-33.58 9.923-6.106 14.5 8.396 25.186-13.737 6.104-16.028 18.317-20.606 17.46-.047 9.383-3.724 26.58 20.56 12.567-12.48 10.33 9.427 37.396 3.053 6.506-15.218 3.416-32.863 26.71-19.08.132-13.598 21.686-14.24 6.15-17.506 19.166-.893 15.333-13.453z" fill="none" stroke="red" stroke-width="10" stroke-linejoin="round"/></svg>
